<?xml version="1.0" encoding="UTF-8"?>
<svg version="1.1" xmlns="http://www.w3.org/2000/svg" width="302" height="75">
<path d="M0 0 C1.38832031 0.00966797 1.38832031 0.00966797 2.8046875 0.01953125 C4.24328125 0.04466797 4.24328125 0.04466797 5.7109375 0.0703125 C6.67773438 0.07933594 7.64453125 0.08835937 8.640625 0.09765625 C11.12259891 0.12192136 13.6041425 0.15764809 16.0859375 0.1953125 C17.79231063 0.1953125 19.4984856 0.13158853 21.203125 0.0546875 C22.44320312 0.01859375 23.68328125 -0.0175 24.9609375 -0.0546875 C26.81332031 -0.12429687 26.81332031 -0.12429687 28.703125 -0.1953125 C32.80523727 0.27837252 33.44375303 1.14095504 36.0859375 4.1953125 C38.53605549 7.86903713 40.66160704 11.7281989 42.8359375 15.5703125 C43.43792969 16.59898438 44.03992188 17.62765625 44.66015625 18.6875 C45.22863281 19.6878125 45.79710938 20.688125 46.3828125 21.71875 C46.90198242 22.62544434 47.42115234 23.53213867 47.95605469 24.46630859 C49.54480161 28.30360615 49.79140924 31.4362691 48.23144531 35.32592773 C47.83795898 35.96216064 47.44447266 36.59839355 47.0390625 37.25390625 C46.6059375 37.96998047 46.1728125 38.68605469 45.7265625 39.42382812 C45.26765625 40.15279297 44.80875 40.88175781 44.3359375 41.6328125 C43.44499912 43.08965215 42.55437062 44.54668135 41.6640625 46.00390625 C41.22771484 46.70499512 40.79136719 47.40608398 40.34179688 48.12841797 C39.14837861 50.09254686 38.0427778 52.0866552 36.9453125 54.10546875 C35.0859375 57.1953125 35.0859375 57.1953125 32.0859375 59.1953125 C28.8359375 59.390625 28.8359375 59.390625 25.0859375 59.3203125 C23.8484375 59.30226562 22.6109375 59.28421875 21.3359375 59.265625 C20.2634375 59.24242187 19.1909375 59.21921875 18.0859375 59.1953125 C15.49857676 59.1953125 12.92560168 59.25743817 10.33984375 59.3359375 C8.44272321 59.37316201 6.5455869 59.40958944 4.6484375 59.4453125 C3.69388672 59.47882813 2.73933594 59.51234375 1.75585938 59.546875 C0.83482422 59.55976562 -0.08621094 59.57265625 -1.03515625 59.5859375 C-1.8748999 59.60688477 -2.71464355 59.62783203 -3.57983398 59.64941406 C-7.6287327 58.86174001 -9.3233553 56.0678939 -11.5456543 52.78515625 C-12.06297119 51.90988281 -12.58028809 51.03460938 -13.11328125 50.1328125 C-13.68240234 49.17117187 -14.25152344 48.20953125 -14.83789062 47.21875 C-15.41990234 46.22101562 -16.00191406 45.22328125 -16.6015625 44.1953125 C-17.19517578 43.19757812 -17.78878906 42.19984375 -18.40039062 41.171875 C-23.40312722 32.66094797 -23.40312722 32.66094797 -23.9140625 29.1953125 C-23.015625 26.9609375 -23.015625 26.9609375 -21.5390625 24.4453125 C-20.98734375 23.49269531 -20.435625 22.54007813 -19.8671875 21.55859375 C-19.22265625 20.44871094 -18.578125 19.33882812 -17.9140625 18.1953125 C-17.15460222 16.79526689 -16.39961823 15.39278654 -15.6484375 13.98828125 C-14.86208389 12.53640161 -14.07562602 11.08457843 -13.2890625 9.6328125 C-12.9173291 8.92995117 -12.5455957 8.22708984 -12.16259766 7.50292969 C-8.96366989 1.69005341 -6.59473909 -0.0816336 0 0 Z M19.0859375 3.1953125 C20.0859375 5.1953125 20.0859375 5.1953125 20.0859375 5.1953125 Z M20.0859375 5.1953125 C21.0859375 7.1953125 21.0859375 7.1953125 21.0859375 7.1953125 Z M4.0859375 8.1953125 C0.56565036 12.83933951 -2.42844481 17.91181311 -5.3515625 22.9453125 C-5.86589844 23.82703125 -6.38023438 24.70875 -6.91015625 25.6171875 C-8.17111177 28.85543904 -8.08118482 29.91984019 -6.9140625 33.1953125 C-5.39606076 36.19194524 -3.70685463 39.06715477 -1.9765625 41.9453125 C-1.52087891 42.72519531 -1.06519531 43.50507812 -0.59570312 44.30859375 C1.58494323 48.41970882 1.58494323 48.41970882 5.0859375 51.1953125 C5.7459375 50.0815625 6.4059375 48.9678125 7.0859375 47.8203125 C7.4571875 47.19382813 7.8284375 46.56734375 8.2109375 45.921875 C9.23662098 44.22058583 9.23662098 44.22058583 9.0859375 42.1953125 C10.0759375 41.7003125 10.0759375 41.7003125 11.0859375 41.1953125 C15.66953767 35.29433004 15.66953767 35.29433004 16.8359375 28.2578125 C16.2584375 27.2471875 15.6809375 26.2365625 15.0859375 25.1953125 C14.63992187 24.33808594 14.19390625 23.48085938 13.734375 22.59765625 C11.12052852 17.61794359 8.40353042 12.74164354 5.0859375 8.1953125 C4.7559375 8.1953125 4.4259375 8.1953125 4.0859375 8.1953125 Z M23.0859375 10.1953125 C24.0859375 12.1953125 24.0859375 12.1953125 24.0859375 12.1953125 Z M24.0859375 12.1953125 C25.0859375 14.1953125 25.0859375 14.1953125 25.0859375 14.1953125 Z M26.0859375 15.1953125 C27.0859375 17.1953125 27.0859375 17.1953125 27.0859375 17.1953125 Z M27.0859375 17.1953125 C28.0859375 19.1953125 28.0859375 19.1953125 28.0859375 19.1953125 Z M28.0859375 19.1953125 C29.0859375 21.1953125 29.0859375 21.1953125 29.0859375 21.1953125 Z M30.0859375 22.1953125 C31.0859375 24.1953125 31.0859375 24.1953125 31.0859375 24.1953125 Z M31.0859375 24.1953125 C32.0859375 26.1953125 32.0859375 26.1953125 32.0859375 26.1953125 Z M32.0859375 26.1953125 C31.4259375 29.4953125 30.7659375 32.7953125 30.0859375 36.1953125 C33.48516678 33.46636948 33.48516678 33.46636948 33.2734375 29.5078125 C33.2115625 28.4146875 33.1496875 27.3215625 33.0859375 26.1953125 C32.7559375 26.1953125 32.4259375 26.1953125 32.0859375 26.1953125 Z M29.0859375 36.1953125 C30.0859375 38.1953125 30.0859375 38.1953125 30.0859375 38.1953125 Z M28.0859375 38.1953125 C28.0859375 41.1953125 28.0859375 41.1953125 28.0859375 41.1953125 Z M26.0859375 41.1953125 C25.4053125 42.3090625 24.7246875 43.4228125 24.0234375 44.5703125 C23.64058594 45.19679688 23.25773437 45.82328125 22.86328125 46.46875 C22.60675781 47.03851563 22.35023437 47.60828125 22.0859375 48.1953125 C22.4159375 48.8553125 22.7459375 49.5153125 23.0859375 50.1953125 C25.21415634 47.37819604 25.21415634 47.37819604 27.0859375 44.1953125 C26.7559375 43.2053125 26.4259375 42.2153125 26.0859375 41.1953125 Z M21.0859375 50.1953125 C22.0859375 52.1953125 22.0859375 52.1953125 22.0859375 52.1953125 Z M20.0859375 52.1953125 C19.4259375 53.8453125 18.7659375 55.4953125 18.0859375 57.1953125 C19.0759375 56.2053125 20.0659375 55.2153125 21.0859375 54.1953125 C20.7559375 53.5353125 20.4259375 52.8753125 20.0859375 52.1953125 Z " fill="#F79224" transform="translate(46.9140625,7.8046875)"/>
<path d="M0 0 C2.52693338 1.84397841 3.80510432 3.00529659 4.4140625 6.11328125 C3.78007452 10.53325404 1.42384338 13.76952846 -0.9375 17.5 C-1.87002541 18.98537059 -2.79603334 20.47485681 -3.71484375 21.96875 C-4.12855225 22.62294922 -4.54226074 23.27714844 -4.96850586 23.95117188 C-6.19056815 26.37852022 -6.77134905 28.28555663 -7 31 C-6.1536125 33.30252449 -6.1536125 33.30252449 -4.69140625 35.46875 C-4.19189453 36.28730469 -3.69238281 37.10585938 -3.17773438 37.94921875 C-2.64470703 38.79097656 -2.11167969 39.63273437 -1.5625 40.5 C-0.51214516 42.1708446 0.52861941 43.84776557 1.55859375 45.53125 C2.02579834 46.26923828 2.49300293 47.00722656 2.97436523 47.76757812 C4.17740097 50.38613531 4.25938335 52.14766637 4 55 C3 57.3125 3 57.3125 2 59 C-3.859375 59.390625 -3.859375 59.390625 -6 59 C-9.06051993 56.29688203 -11.12943298 53.4394705 -13.19921875 49.9375 C-13.76833984 48.97585937 -14.33746094 48.01421875 -14.92382812 47.0234375 C-15.50583984 46.02570312 -16.08785156 45.02796875 -16.6875 44 C-17.28111328 43.00226562 -17.87472656 42.00453125 -18.48632812 40.9765625 C-23.48906472 32.46563547 -23.48906472 32.46563547 -24 29 C-23.1015625 26.765625 -23.1015625 26.765625 -21.625 24.25 C-21.07328125 23.29738281 -20.5215625 22.34476563 -19.953125 21.36328125 C-19.30859375 20.25339844 -18.6640625 19.14351562 -18 18 C-17.24053972 16.59995439 -16.48555573 15.19747404 -15.734375 13.79296875 C-14.94802139 12.34108911 -14.16156352 10.88926593 -13.375 9.4375 C-13.0032666 8.73463867 -12.6315332 8.03177734 -12.24853516 7.30761719 C-9.20697227 1.78069377 -6.52095099 -0.97814265 0 0 Z " fill="#982CC7" transform="translate(47,8)"/>
<path d="M0 0 C6.94884465 0.09938753 6.94884465 0.09938753 10.0625 1.75 C12.92611973 5.01134469 12.9230824 6.97414265 12.81640625 11.19140625 C12.21699533 13.71450802 11.27655761 14.67316658 9.3125 16.3125 C10.56816905 19.78973736 12.04593156 22.40632458 14.3125 25.3125 C14.71082031 24.16652344 15.10914063 23.02054688 15.51953125 21.83984375 C16.05455938 20.30985102 16.58972285 18.77990562 17.125 17.25 C17.38603516 16.49783203 17.64707031 15.74566406 17.91601562 14.97070312 C18.69670347 12.74429705 19.50058109 10.52768627 20.3125 8.3125 C20.55274902 7.62430176 20.79299805 6.93610352 21.04052734 6.22705078 C21.76171875 4.31640625 21.76171875 4.31640625 23.3125 1.3125 C25.5 0.375 25.5 0.375 27.3125 0.3125 C30.16509018 5.57882033 32.43372501 10.9733602 34.5625 16.5625 C34.83271973 17.25988281 35.10293945 17.95726563 35.38134766 18.67578125 C36.67652568 22.13403152 37.3125 24.57078071 37.3125 28.3125 C35.9925 28.3125 34.6725 28.3125 33.3125 28.3125 C32.6525 26.3325 31.9925 24.3525 31.3125 22.3125 C27.3525 22.3125 23.3925 22.3125 19.3125 22.3125 C18.9825 24.2925 18.6525 26.2725 18.3125 28.3125 C15.3425 28.3125 12.3725 28.3125 9.3125 28.3125 C8.47401196 26.85712432 7.64186066 25.39809627 6.8125 23.9375 C6.3484375 23.12539063 5.884375 22.31328125 5.40625 21.4765625 C4.3125 19.3125 4.3125 19.3125 4.3125 17.3125 C2.0025 17.3125 -0.3075 17.3125 -2.6875 17.3125 C-2.501875 18.01375 -2.31625 18.715 -2.125 19.4375 C-1.63593024 22.65138698 -2.02518442 25.14810336 -2.6875 28.3125 C-4.0075 28.3125 -5.3275 28.3125 -6.6875 28.3125 C-6.71636338 23.83334672 -6.73425187 19.35421709 -6.75 14.875 C-6.75837891 13.59560547 -6.76675781 12.31621094 -6.77539062 10.99804688 C-6.77861328 9.78310547 -6.78183594 8.56816406 -6.78515625 7.31640625 C-6.79039307 6.19049072 -6.79562988 5.0645752 -6.80102539 3.90454102 C-6.59499697 -0.79955309 -4.17970009 0.09768057 0 0 Z M-2.6875 4.3125 C-2.6875 7.2825 -2.6875 10.2525 -2.6875 13.3125 C1.82151363 13.49207899 1.82151363 13.49207899 6.3125 13.3125 C8.5616908 11.48546773 8.5616908 11.48546773 8.5625 8.8125 C8.5616908 6.13953227 8.5616908 6.13953227 6.3125 4.3125 C3.29423347 4.04009327 0.34879378 4.22574875 -2.6875 4.3125 Z M25.3125 7.3125 C24.80634702 8.58089526 24.30780901 9.85233102 23.8125 11.125 C23.5340625 11.83269531 23.255625 12.54039063 22.96875 13.26953125 C22.1595838 15.43091216 22.1595838 15.43091216 22.3125 18.3125 C24.6225 18.3125 26.9325 18.3125 29.3125 18.3125 C28.76144091 14.3632432 27.92314629 10.96329826 26.3125 7.3125 C25.9825 7.3125 25.6525 7.3125 25.3125 7.3125 Z " fill="#343434" transform="translate(202.6875,22.6875)"/>
<path d="M0 0 C1.84851563 -0.05607422 1.84851563 -0.05607422 3.734375 -0.11328125 C7.81267893 0.38064667 9.3769849 1.4448053 12.25 4.3125 C13.68304064 7.17858129 13.55644155 9.12550783 13.25 12.3125 C11.25 15.6875 11.25 15.6875 9.25 18.3125 C9.6109375 18.86679687 9.971875 19.42109375 10.34375 19.9921875 C10.8078125 20.71664062 11.271875 21.44109375 11.75 22.1875 C12.44609375 23.26644531 12.44609375 23.26644531 13.15625 24.3671875 C14.25 26.3125 14.25 26.3125 14.25 28.3125 C11.61 28.3125 8.97 28.3125 6.25 28.3125 C5.91226563 27.67441406 5.57453125 27.03632812 5.2265625 26.37890625 C4.78054687 25.55261719 4.33453125 24.72632812 3.875 23.875 C3.43414062 23.05128906 2.99328125 22.22757813 2.5390625 21.37890625 C1.41581441 19.17783422 1.41581441 19.17783422 -0.75 18.3125 C-0.75 21.6125 -0.75 24.9125 -0.75 28.3125 C-2.74954746 28.35504356 -4.75041636 28.35330783 -6.75 28.3125 C-8.52449594 26.53800406 -7.88030072 23.96232739 -7.8828125 21.5625 C-7.88410156 20.3971875 -7.88539062 19.231875 -7.88671875 18.03125 C-7.88285156 16.8040625 -7.87898438 15.576875 -7.875 14.3125 C-7.87886719 13.0853125 -7.88273437 11.858125 -7.88671875 10.59375 C-7.88542969 9.4284375 -7.88414063 8.263125 -7.8828125 7.0625 C-7.88168457 5.98484375 -7.88055664 4.9071875 -7.87939453 3.796875 C-7.6219383 -1.14628465 -4.26582957 0.08407755 0 0 Z M-0.75 7.3125 C-0.75 8.6325 -0.75 9.9525 -0.75 11.3125 C1.56 11.3125 3.87 11.3125 6.25 11.3125 C6.25 9.9925 6.25 8.6725 6.25 7.3125 C3.94 7.3125 1.63 7.3125 -0.75 7.3125 Z " fill="#323232" transform="translate(131.75,22.6875)"/>
<path d="M0 0 C2.24893954 -0.10823773 4.49937575 -0.18569645 6.75 -0.25 C8.00296875 -0.29640625 9.2559375 -0.3428125 10.546875 -0.390625 C14.70723344 0.08000378 15.329125 0.90564555 18 4 C20.45011799 7.67372463 22.57566954 11.5328864 24.75 15.375 C25.35199219 16.40367188 25.95398438 17.43234375 26.57421875 18.4921875 C27.14269531 19.4925 27.71117188 20.4928125 28.296875 21.5234375 C28.81604492 22.43013184 29.33521484 23.33682617 29.87011719 24.27099609 C31.45886411 28.10829365 31.70547174 31.2409566 30.14550781 35.13061523 C29.75202148 35.76684814 29.35853516 36.40308105 28.953125 37.05859375 C28.52 37.77466797 28.086875 38.49074219 27.640625 39.22851562 C27.18171875 39.95748047 26.7228125 40.68644531 26.25 41.4375 C25.35906162 42.89433965 24.46843312 44.35136885 23.578125 45.80859375 C23.14177734 46.50968262 22.70542969 47.21077148 22.25585938 47.93310547 C21.06244111 49.89723436 19.9568403 51.8913427 18.859375 53.91015625 C17 57 17 57 14 59 C10.64453125 59.1953125 10.64453125 59.1953125 6.8125 59.125 C5.54019531 59.10695312 4.26789063 59.08890625 2.95703125 59.0703125 C1.98121094 59.04710937 1.00539063 59.02390625 0 59 C1.64557388 54.70816541 3.67400176 50.95419701 6 47 C7 50 7 50 5.5625 53.1875 C5.046875 54.115625 4.53125 55.04375 4 56 C6.40108039 55.89038955 6.40108039 55.89038955 9 55 C10.82409492 52.7211807 10.82409492 52.7211807 12.1875 49.9375 C13.07653436 48.26498945 14.00322482 46.61062499 15 45 C15.66 45 16.32 45 17 45 C17.12246094 44.44828125 17.24492188 43.8965625 17.37109375 43.328125 C18.07993611 40.70408745 19.03611256 38.2663047 20.0625 35.75 C20.42472656 34.85796875 20.78695312 33.9659375 21.16015625 33.046875 C21.43730469 32.37140625 21.71445313 31.6959375 22 31 C22.66 31 23.32 31 24 31 C23.03052807 26.76957705 21.91996161 23.69802279 19.4375 20.125 C16.04274071 15.00290731 16 9.98391055 16 4 C15.0409375 3.7834375 15.0409375 3.7834375 14.0625 3.5625 C12 3 12 3 11 2 C9.14712498 1.92773498 7.29166122 1.9161878 5.4375 1.9375 C4.42558594 1.94652344 3.41367188 1.95554687 2.37109375 1.96484375 C1.58863281 1.97644531 0.80617188 1.98804688 0 2 C0 1.34 0 0.68 0 0 Z " fill="#F9B21E" transform="translate(65,8)"/>
<path d="M0 0 C3.7225877 0.50762559 6.80647897 0.98250077 10 3 C11.52392578 5.09130859 11.52392578 5.09130859 12.9453125 7.6484375 C13.46480469 8.57140625 13.98429687 9.494375 14.51953125 10.4453125 C15.04933594 11.41210938 15.57914063 12.37890625 16.125 13.375 C16.66253906 14.3340625 17.20007813 15.293125 17.75390625 16.28125 C19.18611699 18.84565725 20.60771252 21.41370912 22 24 C22.3904248 24.69947754 22.78084961 25.39895508 23.18310547 26.11962891 C24.42397485 28.97592776 23.74066424 31.03734306 23 34 C21.9375 36.375 21.9375 36.375 21 38 C20.34 38 19.68 38 19 38 C18.7525 38.886875 18.505 39.77375 18.25 40.6875 C17 44 17 44 15 46.4375 C12.5226349 49.61162403 11.91553402 52.10898041 11 56 C9.02 56.495 9.02 56.495 7 57 C7 57.66 7 58.32 7 59 C5.35 59 3.7 59 2 59 C3.57230211 51.13848943 7.93111326 43.36818165 12.50390625 36.859375 C15.4009961 32.90065284 15.4009961 32.90065284 15.6875 28.1875 C15.130625 27.135625 14.57375 26.08375 14 25 C13.55527344 24.14019531 13.11054687 23.28039062 12.65234375 22.39453125 C10.5190612 18.35166075 8.3613692 14.39957483 5.6875 10.6875 C3.83005664 7.72934947 3.32868704 5.45121389 3 2 C2.01 1.67 1.02 1.34 0 1 C0 0.67 0 0.34 0 0 Z " fill="#F1752B" transform="translate(47,8)"/>
<path d="M0 0 C3.12939813 1.32130143 4.57617207 2.16271756 6.1171875 5.20703125 C7.1340436 8.42407598 7.30068518 11.12883933 7.3125 14.5 C7.32925781 15.6034375 7.34601563 16.706875 7.36328125 17.84375 C6.95835973 21.36177785 6.11512254 23.18644122 4 26 C-0.00254616 28.66836411 -3.29313299 28.8340238 -8 28 C-10.75569447 25.81840855 -12.43588747 24.12822506 -14 21 C-15.05533009 9.24060755 -15.05533009 9.24060755 -12.953125 4.77734375 C-9.02100324 0.0703627 -5.94096639 -0.40277738 0 0 Z M-7 8 C-7.12514928 9.97619447 -7.1757276 11.95738173 -7.1875 13.9375 C-7.20167969 15.01902344 -7.21585938 16.10054687 -7.23046875 17.21484375 C-7.29048031 20.14044315 -7.29048031 20.14044315 -5 22 C-2.39719432 21.67958603 -2.39719432 21.67958603 0 21 C0.02694851 19.04174127 0.04637218 17.08337774 0.0625 15.125 C0.07410156 14.03445312 0.08570313 12.94390625 0.09765625 11.8203125 C0.19744303 9.04822454 0.19744303 9.04822454 -1 7 C-4.28930404 6.63314303 -4.28930404 6.63314303 -7 8 Z " fill="#333333" transform="translate(161,23)"/>
<path d="M0 0 C1.39482079 -0.08204828 2.79108728 -0.13966204 4.1875 -0.1875 C5.35345703 -0.23970703 5.35345703 -0.23970703 6.54296875 -0.29296875 C9.75850581 0.09044187 11.48987327 0.95455071 14 3 C14.71484375 5.6015625 14.71484375 5.6015625 14.9375 8.625 C15.63209261 14.319284 17.33670378 17.49205187 20.734375 22.01953125 C22.46389534 24.7259103 22.48116968 26.87239708 22 30 C21.34 30.33 20.68 30.66 20 31 C19.05431417 33.15788312 18.19047955 35.35212122 17.375 37.5625 C16.92898437 38.76003906 16.48296875 39.95757812 16.0234375 41.19140625 C15.68570313 42.11824219 15.34796875 43.04507813 15 44 C14.34 44 13.68 44 13 44 C12.773125 44.86625 12.54625 45.7325 12.3125 46.625 C10.70557406 50.75709527 9.17358694 52.90021741 6 56 C3.33203125 56.1640625 3.33203125 56.1640625 1 56 C1.56386503 54.34739558 2.15178717 52.70298363 2.75 51.0625 C3.07484375 50.14597656 3.3996875 49.22945312 3.734375 48.28515625 C5 46 5 46 7.140625 45.18359375 C7.75421875 45.12300781 8.3678125 45.06242187 9 45 C8.731875 44.443125 8.46375 43.88625 8.1875 43.3125 C8.125625 42.549375 8.06375 41.78625 8 41 C8.804375 40.360625 9.60875 39.72125 10.4375 39.0625 C13.97348621 34.83656526 13.69070365 31.68168729 13.5078125 26.3046875 C12.86805906 22.14136895 11.44136703 19.26090147 9.09375 15.8046875 C8 14 8 14 8 11 C7.34 11 6.68 11 6 11 C5.67 10.01 5.34 9.02 5 8 C4.2884375 7.319375 4.2884375 7.319375 3.5625 6.625 C1.62907486 4.61423786 0.9168436 2.60947795 0 0 Z " fill="#F79F22" transform="translate(67,9)"/>
<path d="M0 0 C4.84093813 0.03457813 8.24385432 0.39095169 12.3125 3.25 C13.92957958 6.48415916 13.88072376 9.75375265 13.3125 13.25 C11.375 16.25 11.375 16.25 8.3125 18.25 C5.18593604 18.65258432 2.48738991 18.48693208 -0.6875 18.25 C-0.6875 21.55 -0.6875 24.85 -0.6875 28.25 C-2.6675 28.25 -4.6475 28.25 -6.6875 28.25 C-6.71636338 23.77084672 -6.73425187 19.29171709 -6.75 14.8125 C-6.75837891 13.53310547 -6.76675781 12.25371094 -6.77539062 10.93554688 C-6.77861328 9.72060547 -6.78183594 8.50566406 -6.78515625 7.25390625 C-6.79039307 6.12799072 -6.79562988 5.0020752 -6.80102539 3.84204102 C-6.59435083 -0.87680578 -4.18096419 0.06171165 0 0 Z M-0.6875 7.25 C-0.3575 8.9 -0.0275 10.55 0.3125 12.25 C1.9625 12.25 3.6125 12.25 5.3125 12.25 C5.6425 10.6 5.9725 8.95 6.3125 7.25 C4.0025 7.25 1.6925 7.25 -0.6875 7.25 Z " fill="#313131" transform="translate(108.6875,22.75)"/>
<path d="M0 0 C0.99 0.33 1.98 0.66 3 1 C4.25011583 5.59994079 4.33166369 8.03463475 1.9453125 12.2265625 C1.02413338 13.70467226 0.08337733 15.17073306 -0.875 16.625 C-1.81637776 18.09221547 -2.7514932 19.56347156 -3.6796875 21.0390625 C-4.09976074 21.68053223 -4.51983398 22.32200195 -4.95263672 22.98291016 C-6.207109 25.39886587 -6.77372833 27.28106922 -7 30 C-6.1536125 32.30252449 -6.1536125 32.30252449 -4.69140625 34.46875 C-4.19189453 35.28730469 -3.69238281 36.10585938 -3.17773438 36.94921875 C-2.64470703 37.79097656 -2.11167969 38.63273437 -1.5625 39.5 C-0.51214516 41.1708446 0.52861941 42.84776557 1.55859375 44.53125 C2.02579834 45.26923828 2.49300293 46.00722656 2.97436523 46.76757812 C4.17740097 49.38613531 4.25938335 51.14766637 4 54 C3 56.3125 3 56.3125 2 58 C-5.33031674 58.48868778 -5.33031674 58.48868778 -8.3125 56.3125 C-10.05636943 53.92275301 -11.67537184 51.64925631 -13 49 C-12.67 48.34 -12.34 47.68 -12 47 C-9.00022122 48.49988939 -8.44411857 51.05159126 -7 54 C-5.16116119 56.28728734 -5.16116119 56.28728734 -2.375 56.125 C-1.199375 56.063125 -1.199375 56.063125 0 56 C-0.35191406 55.35675781 -0.70382813 54.71351562 -1.06640625 54.05078125 C-2.11457438 52.13233253 -3.15848881 50.21155648 -4.19921875 48.2890625 C-5.42936476 46.04224483 -6.68314428 43.8082473 -7.95703125 41.5859375 C-8.90642578 39.90371094 -8.90642578 39.90371094 -9.875 38.1875 C-10.47054687 37.14980469 -11.06609375 36.11210938 -11.6796875 35.04296875 C-13.13390457 31.69138562 -13.41683855 29.61260078 -13 26 C-12.1171875 24.05078125 -12.1171875 24.05078125 -10.875 22.3125 C-8.67762056 19.05712305 -6.69826933 15.75970486 -4.8125 12.3125 C-4.32394531 11.42175781 -3.83539063 10.53101563 -3.33203125 9.61328125 C-0.87535804 5.02263529 -0.87535804 5.02263529 0 0 Z " fill="#722A99" transform="translate(47,9)"/>
<path d="M0 0 C0.99 0.33 1.98 0.66 3 1 C3.33 5.29 3.66 9.58 4 14 C4.66386719 13.07316406 5.32773438 12.14632812 6.01171875 11.19140625 C6.90292611 9.98124047 7.79489325 8.77163397 8.6875 7.5625 C9.12255859 6.95083984 9.55761719 6.33917969 10.00585938 5.70898438 C12.10407564 2.89582034 13.43759028 1.18074685 16.83203125 0.08984375 C17.54746094 0.06019531 18.26289063 0.03054687 19 0 C18.38801624 3.43950364 17.07941153 5.51564485 14.9375 8.25 C14.38964844 8.95640625 13.84179688 9.6628125 13.27734375 10.390625 C12.85582031 10.92171875 12.43429688 11.4528125 12 12 C12.88365234 13.33804688 12.88365234 13.33804688 13.78515625 14.703125 C14.54492904 15.88499379 15.30400763 17.06730906 16.0625 18.25 C16.45244141 18.83652344 16.84238281 19.42304687 17.24414062 20.02734375 C20.05682797 24.45794859 20.05682797 24.45794859 19.74609375 27.421875 C19.49988281 27.94265625 19.25367188 28.4634375 19 29 C15.07791874 27.52285251 13.84449627 25.49433607 11.875 21.875 C10.96998472 20.21971298 10.02340918 18.58482221 9 17 C8.34 17 7.68 17 7 17 C3.72962401 20.27037599 3.43143987 23.5130254 3 28 C1.68 28 0.36 28 -1 28 C-1.02886338 23.52084672 -1.04675187 19.04171709 -1.0625 14.5625 C-1.07087891 13.28310547 -1.07925781 12.00371094 -1.08789062 10.68554688 C-1.09111328 9.47060547 -1.09433594 8.25566406 -1.09765625 7.00390625 C-1.10289307 5.87799072 -1.10812988 4.7520752 -1.11352539 3.59204102 C-1 1 -1 1 0 0 Z " fill="#343434" transform="translate(173,23)"/>
<path d="M0 0 C1.94677734 0.2121582 1.94677734 0.2121582 4 1 C5.06494141 2.57885742 5.06494141 2.57885742 5.8515625 4.60546875 C6.29242188 5.71051758 6.29242188 5.71051758 6.7421875 6.83789062 C7.03351563 7.61326172 7.32484375 8.38863281 7.625 9.1875 C7.9240625 9.94353516 8.223125 10.69957031 8.53125 11.47851562 C13 22.87778277 13 22.87778277 13 28 C11.68 28 10.36 28 9 28 C8.34 26.02 7.68 24.04 7 22 C3.37 22.33 -0.26 22.66 -4 23 C-4.33 24.65 -4.66 26.3 -5 28 C-6.65 28 -8.3 28 -10 28 C-10.33 27.01 -10.66 26.02 -11 25 C-10.34 25 -9.68 25 -9 25 C-8.9071875 24.20207031 -8.814375 23.40414062 -8.71875 22.58203125 C-7.80926546 18.04943708 -6.21046685 13.97053646 -4.5 9.6875 C-4.01853516 8.45290039 -4.01853516 8.45290039 -3.52734375 7.19335938 C-1.14318665 1.14318665 -1.14318665 1.14318665 0 0 Z M1 7 C0.49384702 8.26839526 -0.00469099 9.53983102 -0.5 10.8125 C-0.7784375 11.52019531 -1.056875 12.22789063 -1.34375 12.95703125 C-2.1529162 15.11841216 -2.1529162 15.11841216 -2 18 C0.31 18 2.62 18 5 18 C4.44894091 14.0507432 3.61064629 10.65079826 2 7 C1.67 7 1.34 7 1 7 Z " fill="#343534" transform="translate(266,23)"/>
<path d="M0 0 C2.65204896 0.36834013 3.73840056 0.6867691 5.484375 2.77734375 C5.90203125 3.49019531 6.3196875 4.20304687 6.75 4.9375 C7.17796875 5.64777344 7.6059375 6.35804687 8.046875 7.08984375 C9 9 9 9 9 11 C11.99192678 8.24290468 13.74043758 5.16364469 15.71875 1.64453125 C16.1415625 1.10183594 16.564375 0.55914063 17 0 C17.99 0 18.98 0 20 0 C19.4044161 4.09463933 18.0150486 7.03085082 16 10.625 C12.97481381 16.45825375 12.02570096 21.4719551 12 28 C10.68 28 9.36 28 8 28 C8.00902344 27.28457031 8.01804688 26.56914063 8.02734375 25.83203125 C7.78956575 17.84062277 5.60552046 12.53632673 1.49609375 5.71484375 C0 3 0 3 0 0 Z " fill="#353535" transform="translate(238,23)"/>
<path d="M0 0 C1.93719378 -0.05406122 3.87481921 -0.09282025 5.8125 -0.125 C6.89144531 -0.14820313 7.97039063 -0.17140625 9.08203125 -0.1953125 C12 0 12 0 15 2 C15.66 2 16.32 2 17 2 C17.268125 2.969375 17.53625 3.93875 17.8125 4.9375 C18.204375 5.948125 18.59625 6.95875 19 8 C19.99 8.33 20.98 8.66 22 9 C22 9.99 22 10.98 22 12 C22.66 12 23.32 12 24 12 C28.920331 20.12733245 31.86885837 27.40025271 30 37 C27.5 40.0625 27.5 40.0625 25 42 C25 43.32 25 44.64 25 46 C23.02 46.495 23.02 46.495 21 47 C22.04278158 43.20806699 23.41554681 40.27340507 25.625 37.0625 C28.09883885 33.20125599 28.76052729 30.6476668 28 26 C26.92489581 23.26585178 25.75498679 21.43748166 24 19 C21.88658874 17.96474868 21.88658874 17.96474868 20 18 C20 17.01 20 16.02 20 15 C19.34 15 18.68 15 18 15 C18 13.68 18 12.36 18 11 C17.01 10.67 16.02 10.34 15 10 C15 8.68 15 7.36 15 6 C14.0925 6.2475 13.185 6.495 12.25 6.75 C10.64125 6.87375 10.64125 6.87375 9 7 C6.9375 5.1875 6.9375 5.1875 5 3 C2.36777038 1.74563813 2.36777038 1.74563813 0 1 C0 0.67 0 0.34 0 0 Z M15 3 C16 5 16 5 16 5 Z M16 5 C17 7 17 7 17 7 Z M19 10 C20 12 20 12 20 12 Z M20 12 C21 14 21 14 21 14 Z M22 15 C23 17 23 17 23 17 Z " fill="#EE9F3D" transform="translate(51,8)"/>
<path d="M0 0 C0.66 0 1.32 0 2 0 C2.33 1.65 2.66 3.3 3 5 C4.32 4.67 5.64 4.34 7 4 C9.17975966 7.26963949 9.36904422 8.21729678 9 12 C8 14.3125 8 14.3125 7 16 C-0.33031674 16.48868778 -0.33031674 16.48868778 -3.3125 14.3125 C-5.05636943 11.92275301 -6.67537184 9.64925631 -8 7 C-7.67 6.34 -7.34 5.68 -7 5 C-4.00022122 6.49988939 -3.44411857 9.05159126 -2 12 C-0.16116119 14.28728734 -0.16116119 14.28728734 2.625 14.125 C3.40875 14.08375 4.1925 14.0425 5 14 C4.55527344 13.24074219 4.11054687 12.48148438 3.65234375 11.69921875 C3.08644531 10.70535156 2.52054688 9.71148437 1.9375 8.6875 C1.36902344 7.70136719 0.80054688 6.71523438 0.21484375 5.69921875 C-1 3 -1 3 0 0 Z " fill="#7C279D" transform="translate(42,51)"/>
<path d="M0 0 C4.20767092 2.10383546 6.53536068 4.41346893 8.75 8.5625 C9.17796875 9.34753906 9.6059375 10.13257813 10.046875 10.94140625 C11 13 11 13 11 15 C9.35 15.33 7.7 15.66 6 16 C0.1121673 9.33745247 0.1121673 9.33745247 -1 5 C-0.625 2.1875 -0.625 2.1875 0 0 Z " fill="#982CC8" transform="translate(36,50)"/>
<path d="M0 0 C5.75 0.875 5.75 0.875 8 2 C8.59355614 4.64860427 8.74209269 7.29197322 9 10 C9.99 9.67 10.98 9.34 12 9 C11.34 10.98 10.68 12.96 10 15 C10.66 15 11.32 15 12 15 C12.2475 15.680625 12.495 16.36125 12.75 17.0625 C13.97677888 20.16138457 13.97677888 20.16138457 16.125 23.375 C18.2443813 26.94654997 18.33908602 29.84619621 18 34 C16.515 34.495 16.515 34.495 15 35 C15.24105469 34.1646875 15.48210938 33.329375 15.73046875 32.46875 C16.07874505 27.98658543 14.4987648 25.25113025 12.3125 21.5 C11.95994141 20.86191406 11.60738281 20.22382813 11.24414062 19.56640625 C9.53988061 16.51930151 7.74751245 13.62992159 5.77734375 10.7421875 C3.83708854 7.74865089 3.33531777 5.52083661 3 2 C2.01 1.67 1.02 1.34 0 1 C0 0.67 0 0.34 0 0 Z " fill="#E2784A" transform="translate(47,8)"/>
<path d="M0 0 C3.81237292 4.67323132 5.44872673 6.86600774 5 13 C3.83837891 15.77661133 3.83837891 15.77661133 2.2265625 18.58203125 C1.6490625 19.59587891 1.0715625 20.60972656 0.4765625 21.65429688 C-0.13445312 22.69650391 -0.74546875 23.73871094 -1.375 24.8125 C-1.97828125 25.87404297 -2.5815625 26.93558594 -3.203125 28.02929688 C-7.70900017 35.85450008 -7.70900017 35.85450008 -10 37 C-10 35.02 -10 33.04 -10 31 C-9.34 31 -8.68 31 -8 31 C-8.20625 30.05125 -8.4125 29.1025 -8.625 28.125 C-8.74875 27.09375 -8.8725 26.0625 -9 25 C-8.34 24.34 -7.68 23.68 -7 23 C-4.875 23.375 -4.875 23.375 -3 24 C-2.566875 22.9171875 -2.566875 22.9171875 -2.125 21.8125 C-1.08333333 19.20833333 -0.04166667 16.60416667 1 14 C1.66 14 2.32 14 3 14 C2.68872484 12.41642541 2.37592711 10.83315007 2.0625 9.25 C1.88847656 8.36828125 1.71445313 7.4865625 1.53515625 6.578125 C1.07631512 4.36764947 0.56663926 2.18487932 0 0 Z " fill="#EE9B3C" transform="translate(74,27)"/>
<path d="M0 0 C1.91470844 -0.13547465 3.83218481 -0.23220869 5.75 -0.3125 C6.81734375 -0.37050781 7.8846875 -0.42851563 8.984375 -0.48828125 C12 0 12 0 14.15234375 2.1328125 C16.08397789 5.13031665 18.00007271 8.1159127 19.8125 11.1875 C20.43769531 12.23292969 21.06289062 13.27835938 21.70703125 14.35546875 C22.13371094 15.22816406 22.56039062 16.10085937 23 17 C22.67 17.66 22.34 18.32 22 19 C21.34 18.67 20.68 18.34 20 18 C20 17.01 20 16.02 20 15 C19.34 15 18.68 15 18 15 C18 13.68 18 12.36 18 11 C17.01 10.67 16.02 10.34 15 10 C15 8.68 15 7.36 15 6 C14.0925 6.2475 13.185 6.495 12.25 6.75 C10.64125 6.87375 10.64125 6.87375 9 7 C6.9375 5.1875 6.9375 5.1875 5 3 C2.36777038 1.74563813 2.36777038 1.74563813 0 1 C0 0.67 0 0.34 0 0 Z " fill="#EC9A3B" transform="translate(51,8)"/>
<path d="M0 0 C0.99 0.66 1.98 1.32 3 2 C2.67 2.99 2.34 3.98 2 5 C1.34 4.67 0.68 4.34 0 4 C0.33 6.31 0.66 8.62 1 11 C-2.08888522 13.05925681 -2.70935927 13.2390374 -6.1875 13.125 C-8.0746875 13.063125 -8.0746875 13.063125 -10 13 C-10 12.34 -10 11.68 -10 11 C-9.38125 10.95875 -8.7625 10.9175 -8.125 10.875 C-7.42375 10.58625 -6.7225 10.2975 -6 10 C-5.29373761 8.01363702 -4.63106429 6.01151741 -4 4 C-1.875 1.625 -1.875 1.625 0 0 Z " fill="#F1972C" transform="translate(64,54)"/>
<path d="M0 0 C0.66 0 1.32 0 2 0 C0.33766168 5.49850367 -1.11431361 9.74287574 -6 13 C-9.35546875 13.1953125 -9.35546875 13.1953125 -13.1875 13.125 C-14.45980469 13.10695313 -15.73210937 13.08890625 -17.04296875 13.0703125 C-18.50669922 13.03550781 -18.50669922 13.03550781 -20 13 C-18.35442612 8.70816541 -16.32599824 4.95419701 -14 1 C-13 4 -13 4 -14.4375 7.1875 C-15.2109375 8.5796875 -15.2109375 8.5796875 -16 10 C-12.04 10 -8.08 10 -4 10 C-3.67 7.69 -3.34 5.38 -3 3 C-2.01 3 -1.02 3 0 3 C0 2.01 0 1.02 0 0 Z " fill="#EAAC4C" transform="translate(85,54)"/>
<path d="M0 0 C2.24893954 -0.10823773 4.49937575 -0.18569645 6.75 -0.25 C8.00296875 -0.29640625 9.2559375 -0.3428125 10.546875 -0.390625 C14 0 14 0 16.24609375 1.6953125 C18.08291355 4.10895099 19.74877368 6.52525649 21.3125 9.125 C22.11107422 10.42824219 22.11107422 10.42824219 22.92578125 11.7578125 C23.28027344 12.49773438 23.63476562 13.23765625 24 14 C23.67 14.66 23.34 15.32 23 16 C20.08482708 14.92598892 18.22189824 14.22189824 16 12 C15.73008094 9.31160615 15.91262643 6.70858064 16 4 C15.0409375 3.7834375 15.0409375 3.7834375 14.0625 3.5625 C12 3 12 3 11 2 C9.14712498 1.92773498 7.29166122 1.9161878 5.4375 1.9375 C4.42558594 1.94652344 3.41367188 1.95554687 2.37109375 1.96484375 C1.58863281 1.97644531 0.80617188 1.98804688 0 2 C0 1.34 0 0.68 0 0 Z " fill="#F0BA3F" transform="translate(65,8)"/>
<path d="M0 0 C2.64384835 2.52889842 3.87992004 3.96431036 4.3125 7.6953125 C3.92282305 11.8161462 2.24711508 14.5195106 0 17.875 C-0.3815625 18.46796875 -0.763125 19.0609375 -1.15625 19.671875 C-2.09209875 21.12244056 -3.04441631 22.56235847 -4 24 C-5 21 -5 21 -3.5625 17.8125 C-3.046875 16.884375 -2.53125 15.95625 -2 15 C-2.66 14.67 -3.32 14.34 -4 14 C-3.34 13.34 -2.68 12.68 -2 12 C-1.01 12 -0.02 12 1 12 C1.08159574 7.83861737 0.98248524 4.0527516 0 0 Z " fill="#F1BB43" transform="translate(92,30)"/>
<path d="M0 0 C-0.96234434 2.14676815 -1.75990811 3.77380817 -3.484375 5.3984375 C-5.16959649 7.17921279 -5.7010947 8.4935094 -6.4375 10.8125 C-7.80840317 14.71596639 -9.46258867 17.72592086 -12 21 C-12.66 21 -13.32 21 -14 21 C-12.567062 16.14144459 -10.52445309 12.03669364 -8 7.6875 C-7.64421875 7.05521484 -7.2884375 6.42292969 -6.921875 5.77148438 C-3.60620981 0 -3.60620981 0 0 0 Z " fill="#8C3FAE" transform="translate(42,9)"/>
<path d="M0 0 C1.80411967 2.75924185 2.0127245 3.88972103 1.625 7.25 C1.41875 8.1575 1.2125 9.065 1 10 C2.65 10 4.3 10 6 10 C5.67 11.32 5.34 12.64 5 14 C2.625 13.75 2.625 13.75 0 13 C-2.41215627 9.89865622 -2.32468594 6.81505974 -2 3 C-1.34 2.01 -0.68 1.02 0 0 Z " fill="#7623A7" transform="translate(36,32)"/>
<path d="M0 0 C6.70909091 1.11818182 6.70909091 1.11818182 9 3 C9.66263618 5.70024244 9.81962054 8.20411839 10 11 C9.01 11 8.02 11 7 11 C7 10.01 7 9.02 7 8 C6.34 8 5.68 8 5 8 C2 3.61538462 2 3.61538462 2 1 C1.34 0.67 0.68 0.34 0 0 Z " fill="#FBB11C" transform="translate(72,9)"/>
<path d="M0 0 C3.57011026 3.732388 4.10913442 8.0949989 5 13 C4.360625 13.28875 3.72125 13.5775 3.0625 13.875 C0.84793921 14.82823451 0.84793921 14.82823451 0 17 C-1.31748079 14.36503842 -0.72270284 13.25152418 0 10.4375 C0.3760362 8.96860861 0.72004242 7.49019089 1 6 C0.67 5.67 0.34 5.34 0 5 C-0.04063832 3.33382885 -0.042721 1.66611905 0 0 Z " fill="#F7B62C" transform="translate(89,24)"/>
<path d="M0 0 C3 1 3 1 4.1875 2.8125 C5 5 5 5 5 9 C3.68 9 2.36 9 1 9 C0.7525 8.030625 0.505 7.06125 0.25 6.0625 C-0.36875 4.5465625 -0.36875 4.5465625 -1 3 C-3.03243548 2.03122943 -3.03243548 2.03122943 -5 2 C-3.35 2 -1.7 2 0 2 C0 1.34 0 0.68 0 0 Z " fill="#323232" transform="translate(235,42)"/>
<path d="M0 0 C0.99 0.33 1.98 0.66 3 1 C3.98097047 4.62204481 4.5566048 6.76429436 2.98828125 10.24609375 C1.73997225 12.25268788 0.49380615 14.1684224 -1 16 C-1.33 16 -1.66 16 -2 16 C-2.1875 12.625 -2.1875 12.625 -2 9 C-1.01 8.34 -0.02 7.68 1 7 C0.67 4.69 0.34 2.38 0 0 Z " fill="#873285" transform="translate(47,9)"/>
<path d="M0 0 C0.66 0.33 1.32 0.66 2 1 C1.6875 2.9375 1.6875 2.9375 1 5 C0.01 5.33 -0.98 5.66 -2 6 C-2 8.31 -2 10.62 -2 13 C-3.32 13.33 -4.64 13.66 -6 14 C-6 14.66 -6 15.32 -6 16 C-6.66 15.67 -7.32 15.34 -8 15 C-7.59007812 14.25234375 -7.18015625 13.5046875 -6.7578125 12.734375 C-5.94957031 11.25710937 -5.94957031 11.25710937 -5.125 9.75 C-4.59132812 8.77546875 -4.05765625 7.8009375 -3.5078125 6.796875 C-2.29580534 4.54869592 -1.12452433 2.2927195 0 0 Z " fill="#7C21A5" transform="translate(47,12)"/>
<path d="M0 0 C1.24546405 2.49092811 0.7767578 3.41080733 0 6 C0.99 6.33 1.98 6.66 3 7 C3 7.66 3 8.32 3 9 C2.360625 9.12375 1.72125 9.2475 1.0625 9.375 C0.381875 9.58125 -0.29875 9.7875 -1 10 C-1.33 10.66 -1.66 11.32 -2 12 C-3.25 9.9375 -3.25 9.9375 -4 7 C-2.95421827 4.39093631 -1.57355686 2.36033529 0 0 Z " fill="#8D33BE" transform="translate(27,30)"/>
<path d="M0 0 C2.24893954 -0.10823773 4.49937575 -0.18569645 6.75 -0.25 C8.00296875 -0.29640625 9.2559375 -0.3428125 10.546875 -0.390625 C14 0 14 0 16.453125 2.015625 C16.96359375 2.67046875 17.4740625 3.3253125 18 4 C17.67 4.66 17.34 5.32 17 6 C16.236875 5.34 15.47375 4.68 14.6875 4 C10.2182437 0.94152099 5.19079851 1.66749333 0 2 C0 1.34 0 0.68 0 0 Z " fill="#F0B34C" transform="translate(65,8)"/>
<path d="M0 0 C3 1 3 1 4.5625 3.9375 C5.036875 4.948125 5.51125 5.95875 6 7 C7.95633975 9.41121859 7.95633975 9.41121859 11.625 9.125 C12.73875 9.08375 13.8525 9.0425 15 9 C15 9.66 15 10.32 15 11 C7.66968326 11.48868778 7.66968326 11.48868778 4.6875 9.3125 C0 2.88888889 0 2.88888889 0 0 Z " fill="#8C46A3" transform="translate(34,56)"/>
<path d="M0 0 C1.9375 0.125 1.9375 0.125 4 1 C5.25 3.5625 5.25 3.5625 6 6 C4.02 6.33 2.04 6.66 0 7 C-0.38133299 5.0085944 -0.71325582 3.00720923 -1 1 C-0.67 0.67 -0.34 0.34 0 0 Z " fill="#383838" transform="translate(227,23)"/>
<path d="M0 0 C0.66 0 1.32 0 2 0 C0.77987907 4.0357846 -0.53861668 7.55406335 -3 11 C-3.99 11.33 -4.98 11.66 -6 12 C-6 11.34 -6 10.68 -6 10 C-5.34 10 -4.68 10 -4 10 C-3.67 7.69 -3.34 5.38 -3 3 C-2.01 3 -1.02 3 0 3 C0 2.01 0 1.02 0 0 Z " fill="#EFBC4E" transform="translate(85,54)"/>
<path d="M0 0 C0.598125 0.309375 1.19625 0.61875 1.8125 0.9375 C4.08956772 2.10209704 4.08956772 2.10209704 7 3 C7 4.98 7 6.96 7 9 C4 8 4 8 2.83203125 6.15234375 C2.49558594 5.42144531 2.15914062 4.69054688 1.8125 3.9375 C1.46832031 3.20402344 1.12414062 2.47054687 0.76953125 1.71484375 C0.51558594 1.14894531 0.26164062 0.58304688 0 0 Z " fill="#8F33BA" transform="translate(29,48)"/>
<path d="M0 0 C1.27351308 2.54702616 0.80191925 3.4282945 0.0625 6.125 C-0.13214844 6.84945312 -0.32679687 7.57390625 -0.52734375 8.3203125 C-0.68332031 8.87460938 -0.83929688 9.42890625 -1 10 C-0.34 10.33 0.32 10.66 1 11 C-0.65 11 -2.3 11 -4 11 C-3.21681311 7.08406554 -1.60820142 3.63593365 0 0 Z " fill="#D36F5C" transform="translate(53,56)"/>
<path d="M0 0 C0.33 0.99 0.66 1.98 1 3 C-0.32346506 5.0065438 -1.65729179 7.00628175 -3 9 C-3 10.32 -3 11.64 -3 13 C-4.32 13.33 -5.64 13.66 -7 14 C-5.53967505 8.68972746 -3.01679014 4.53669968 0 0 Z " fill="#EBA349" transform="translate(79,41)"/>
<path d="M0 0 C2.64 0.33 5.28 0.66 8 1 C8 1.33 8 1.66 8 2 C6.35 2 4.7 2 3 2 C2.34 3.32 1.68 4.64 1 6 C0.34 5.67 -0.32 5.34 -1 5 C-0.67 3.35 -0.34 1.7 0 0 Z " fill="#383838" transform="translate(125,23)"/>
<path d="M0 0 C0.66 0.33 1.32 0.66 2 1 C2.95067299 4.28414305 3.10102197 5.69693408 2 9 C0.4375 7.3125 0.4375 7.3125 -1 5 C-0.6875 2.25 -0.6875 2.25 0 0 Z " fill="#9F2AD0" transform="translate(36,50)"/>
<path d="M0 0 C0.99 0.33 1.98 0.66 3 1 C2.21718695 2.33855056 1.42348123 3.67073644 0.625 5 C0.18414062 5.7425 -0.25671875 6.485 -0.7109375 7.25 C-1.34902344 8.11625 -1.34902344 8.11625 -2 9 C-2.66 9 -3.32 9 -4 9 C-2.94124926 5.59687262 -1.99097846 2.98646769 0 0 Z " fill="#8E38B6" transform="translate(32,21)"/>
<path d="M0 0 C1.32 0.66 2.64 1.32 4 2 C4 2.66 4 3.32 4 4 C3.34 4 2.68 4 2 4 C1.67 4.66 1.34 5.32 1 6 C-2 6 -2 6 -4 5 C-2.68 3.35 -1.36 1.7 0 0 Z " fill="#EA8945" transform="translate(61,43)"/>
<path d="M0 0 C0.99 0.33 1.98 0.66 3 1 C2.79375 1.61875 2.5875 2.2375 2.375 2.875 C2.25125 3.57625 2.1275 4.2775 2 5 C2.66 5.66 3.32 6.32 4 7 C2.35 7 0.7 7 -1 7 C-1.33 6.01 -1.66 5.02 -2 4 C-1.34 4 -0.68 4 0 4 C0 2.68 0 1.36 0 0 Z " fill="#4A4A4A" transform="translate(257,44)"/>
<path d="M0 0 C2.31 0 4.62 0 7 0 C7.33 1.32 7.66 2.64 8 4 C7.01 4.33 6.02 4.66 5 5 C4.34 4.01 3.68 3.02 3 2 C2.01 1.34 1.02 0.68 0 0 Z " fill="#F5932B" transform="translate(53,9)"/>
<path d="M0 0 C0.66 0 1.32 0 2 0 C1.05066101 3.35433109 0.10251165 6.69246505 -1 10 C-1.66 10 -2.32 10 -3 10 C-1.125 2.25 -1.125 2.25 0 0 Z " fill="#E5894A" transform="translate(56,50)"/>
<path d="M0 0 C0.66 0 1.32 0 2 0 C0.8141763 3.37503669 -0.27573689 5.64722731 -3 8 C-3 6.02 -3 4.04 -3 2 C-2.34 2 -1.68 2 -1 2 C-0.67 1.34 -0.34 0.68 0 0 Z " fill="#ED9A44" transform="translate(67,56)"/>
<path d="M0 0 C1.32 0 2.64 0 4 0 C4.33 0.99 4.66 1.98 5 3 C4.01 3.99 3.02 4.98 2 6 C1.34 4.02 0.68 2.04 0 0 Z " fill="#9131BB" transform="translate(26,42)"/>
<path d="M0 0 C1.74627478 2.61941217 2.38722388 4.03824877 3 7 C1.35 6.67 -0.3 6.34 -2 6 C-1.34 4.02 -0.68 2.04 0 0 Z " fill="#6C2E95" transform="translate(38,36)"/>
<path d="M0 0 C0.36923077 4.55384615 0.36923077 4.55384615 -1.5 6.8125 C-1.995 7.204375 -2.49 7.59625 -3 8 C-3 5.69 -3 3.38 -3 1 C-1 0 -1 0 0 0 Z " fill="#6C2E92" transform="translate(48,17)"/>
<path d="" fill="#FFFFFF" transform="translate(0,0)"/>
<path d="" fill="#FFFFFF" transform="translate(0,0)"/>
<path d="" fill="#FFFFFF" transform="translate(0,0)"/>
<path d="" fill="#FFFFFF" transform="translate(0,0)"/>
<path d="" fill="#FFFFFF" transform="translate(0,0)"/>
<path d="" fill="#FFFFFF" transform="translate(0,0)"/>
<path d="" fill="#FFFFFF" transform="translate(0,0)"/>
<path d="" fill="#FFFFFF" transform="translate(0,0)"/>
<path d="" fill="#FFFFFF" transform="translate(0,0)"/>
<path d="" fill="#FFFFFF" transform="translate(0,0)"/>
<path d="" fill="#FFFFFF" transform="translate(0,0)"/>
<path d="" fill="#FFFFFF" transform="translate(0,0)"/>
<path d="" fill="#FFFFFF" transform="translate(0,0)"/>
<path d="" fill="#00FFFF" transform="translate(0,0)"/>
<path d="" fill="#FFFFFF" transform="translate(0,0)"/>
<path d="" fill="#FFFFFF" transform="translate(0,0)"/>
<path d="" fill="#FFFFFF" transform="translate(0,0)"/>
<path d="" fill="#FFFFFF" transform="translate(0,0)"/>
<path d="" fill="#FFFFFF" transform="translate(0,0)"/>
<path d="" fill="#FFFFFF" transform="translate(0,0)"/>
<path d="" fill="#FFFFFF" transform="translate(0,0)"/>
<path d="" fill="#FFFFFF" transform="translate(0,0)"/>
<path d="" fill="#FFFFFF" transform="translate(0,0)"/>
<path d="" fill="#FFFFFF" transform="translate(0,0)"/>
<path d="" fill="#FFFFFF" transform="translate(0,0)"/>
<path d="" fill="#FFFFFF" transform="translate(0,0)"/>
<path d="" fill="#FFFFFF" transform="translate(0,0)"/>
<path d="" fill="#FFFFFF" transform="translate(0,0)"/>
<path d="" fill="#FFFFFF" transform="translate(0,0)"/>
<path d="" fill="#FFFFFF" transform="translate(0,0)"/>
<path d="" fill="#FFFFFF" transform="translate(0,0)"/>
<path d="" fill="#FFFFFF" transform="translate(0,0)"/>
<path d="" fill="#FFFFFF" transform="translate(0,0)"/>
<path d="" fill="#FFFFFF" transform="translate(0,0)"/>
<path d="" fill="#FFFFFF" transform="translate(0,0)"/>
<path d="" fill="#FFFFFF" transform="translate(0,0)"/>
<path d="" fill="#FFFFFF" transform="translate(0,0)"/>
<path d="" fill="#FFFFFF" transform="translate(0,0)"/>
<path d="" fill="#FFFFFF" transform="translate(0,0)"/>
<path d="" fill="#FFFFFF" transform="translate(0,0)"/>
<path d="" fill="#FFFFFF" transform="translate(0,0)"/>
<path d="" fill="#FFFFFF" transform="translate(0,0)"/>
<path d="" fill="#FFFFFF" transform="translate(0,0)"/>
<path d="" fill="#00FFFF" transform="translate(0,0)"/>
<path d="" fill="#FFFFFF" transform="translate(0,0)"/>
<path d="" fill="#FFFFFF" transform="translate(0,0)"/>
<path d="" fill="#FFFFFF" transform="translate(0,0)"/>
<path d="" fill="#FFFFFF" transform="translate(0,0)"/>
<path d="" fill="#FFFFFF" transform="translate(0,0)"/>
<path d="" fill="#FFFFFF" transform="translate(0,0)"/>
<path d="" fill="#FFFFFF" transform="translate(0,0)"/>
<path d="" fill="#FFFFFF" transform="translate(0,0)"/>
<path d="" fill="#FFFFFF" transform="translate(0,0)"/>
<path d="" fill="#FFFFFF" transform="translate(0,0)"/>
<path d="" fill="#FFFFFF" transform="translate(0,0)"/>
<path d="" fill="#FFFFFF" transform="translate(0,0)"/>
<path d="" fill="#FFFFFF" transform="translate(0,0)"/>
<path d="" fill="#FFFFFF" transform="translate(0,0)"/>
</svg>
